<?xml version="1.0" encoding="utf-8"?>
<!-- Generator: Adobe Illustrator 22.0.1, SVG Export Plug-In . SVG Version: 6.00 Build 0)  -->
<svg version="1.1" id="pg1" xmlns="http://www.w3.org/2000/svg" xmlns:xlink="http://www.w3.org/1999/xlink" x="0px" y="0px"
	 viewBox="0 0 1920 1080" enable-background="new 0 0 1920 1080" xml:space="preserve">
<g>
	<rect id="bg" x="-2" y="-1.1" fill="#341E47" width="1922.9" height="1081.4"/>
	<g>
		<rect x="329.8" y="0.3" fill="#CCBCDD" width="155" height="1080"/>
		
			<rect x="881.2" y="-196.9" transform="matrix(1.596137e-10 -1 1 1.596137e-10 195.6429 1721.7858)" fill="#CCBCDD" width="155" height="1920"/>
	</g>
	<g>
		<polygon fill="#6B5E7C" points="484.8,623.3 268.8,839.3 329,843.5 328.2,898.7 544.2,682.7 487,685.5 		"/>
		<polygon fill="#6B5E7C" points="328.2,623.3 544.2,839.3 484,843.5 484.8,898.7 268.8,682.7 326,685.5 		"/>
	</g>
</g>
<g id="bow">
	<g>
		<path fill="#6D3961" stroke="#351035" stroke-miterlimit="10" d="M564.8,664.8c-5.2-11.1-8-44.3-8-44.3
			c-18.2-59.4-65.2-36.3-65.2-36.3c-31.5,0.9-99.1,109.5-99.1,109.5c-12-3.9-25.6,10.6-25.6,10.6C340.3,692.8,247,679.8,247,679.8
			c-52.4,5.1-52.9,35.9-55.1,55.6c-2.2,19.7,34.4,61.7,34.4,61.7c-9.2,32.9,13.1,64.8,13.1,64.8c35.8,39.7,91.2-11.1,124-49.1
			c-11,48.5-31,113.2-64.1,151.6c0,0,71.2,27,96,10.8c0,0,45.2-118,15-190.7l-6.5-6.5c3.8-1.1,7.4-2.9,10.6-4.8l-0.8,10.2
			c23.9,75,134.7,135.8,134.7,135.8c29.3-3.7,66.3-70.3,66.3-70.3c-48-7.6-102.3-41.4-141.8-70.5c68.7,12.5,97.1-9.3,97.1-9.3
			c29-14.2,26.6-49.8,25.6-58.9C594.6,701.1,564.8,664.8,564.8,664.8z"/>
		
			<ellipse transform="matrix(0.9389 -0.3441 0.3441 0.9389 -229.0988 180.4024)" fill="#6D3961" stroke="#351035" stroke-miterlimit="10" cx="393.8" cy="735.7" rx="35.4" ry="43.2"/>
		<path fill="#4C223D" stroke="#461D49" stroke-miterlimit="10" d="M351.8,714.5c0,0-133-5.5-135.4-15.3
			c-2.4-9.7,99.4-15.2,135.9,10.4L351.8,714.5z"/>
		<path fill="#4C223D" stroke="#461D49" stroke-miterlimit="10" d="M401.2,691.7l8.2,6.4c0,0,100.6-92.3,97.8-106.6
			C507.2,591.5,484.5,581,401.2,691.7z"/>
		<path fill="none" stroke="#351035" stroke-miterlimit="10" d="M360.5,747.9c0,0-20.3,22.3-55.4,18.7"/>
		<path fill="none" stroke="#351035" stroke-miterlimit="10" d="M427,723.5c0,0,21.6,1.5,41.1-20.6"/>
		<path fill="none" stroke="#351035" stroke-miterlimit="10" d="M349.7,766c0,0,10.5-1.5,15.6-8.9"/>
		<path fill="none" stroke="#351035" stroke-miterlimit="10" d="M431.9,732.9c0,0,10.6,0.5,17-5.9"/>
		<line fill="none" stroke="#351035" stroke-miterlimit="10" x1="363.5" y1="812.8" x2="387.9" y2="778"/>
		<line fill="none" stroke="#351035" stroke-miterlimit="10" x1="472.8" y1="778.2" x2="425.7" y2="762"/>
	</g>
</g>
<g id="myNet">
	<path fill="none" stroke="#000000" stroke-width="3" stroke-linecap="round" stroke-miterlimit="10" d="M1665.9,3.3
		c0,0,38.5-37.1-175.8,218.9c-212.7,254.1-539.4,487.5-578.3,499.3l1012.9-140.1"/>
	<path fill="none" stroke="#000000" stroke-width="3" stroke-linecap="round" stroke-miterlimit="10" d="M922.5,1012.4l-164.9,67.6
		l-120-600l274.2,241.4L922.5,1012.4c0,0,140.1,82.6,183.2,61.1L1913.3,7.3"/>
	<polyline fill="none" stroke="#000000" stroke-width="3" stroke-linecap="round" stroke-miterlimit="10" points="1438,636.2 
		1442.5,653.2 1429.9,672.1 1415.5,664 1406.6,648.7 1410.1,619.1 1457.7,613.7 1470.3,659.5 1445.2,695.4 1414.6,703.5 
		1389.5,692.7 1371.5,642.4 1389.5,610.1 1432.6,567 1482.9,577.8 1511.6,642.4 1475.7,753.8 1393.1,789.7 1353.6,750.2 
		1310.5,671.2 1353.6,556.2 1443.4,509.5 1504.4,516.7 1590.6,628.1 1533.2,811.3 1389.5,843.6 1296.1,825.6 1220.7,682 
		1314.1,491.6 1472.1,376.6 1597.8,416.2 1684,620.9 1612.2,944.2 1353.6,983.7 1209.9,929.8 1098.5,717.9 1072.6,612.1 
		1134.1,376.6 1413.1,145.6 1584.1,106.6 1761.1,211.6 1914,582.1 1890,1072.6 	"/>
	<path fill="none" stroke="#000000" stroke-width="3" stroke-linecap="round" stroke-miterlimit="10" d="M-2-1.1l1073.1,313.2
		l168,163.5l184.5,174c0,0-75.4,420.3-79,424.7"/>
	<path fill="none" stroke="#000000" stroke-width="3" stroke-linecap="round" stroke-miterlimit="10" d="M1427.2,652.3
		c62,177.8,277.5,369.1,277.5,369.1l216.2,58.9"/>
	<path fill="none" stroke="#000000" stroke-width="3" stroke-linecap="round" stroke-miterlimit="10" d="M1109.3,1070.8l238-2.7
		l350.2-54.8l135.6-420.3l-134.7-309.8l-192.2-84.4L1236.1,48.1c0,0-58.5,369-598.5,432L-2-1.1l1238.1,49.3
		c97.5,31.5,207-46.5,207-46.5"/>
</g>
<g id="myLadyBug">
	<circle cx="1429.9" cy="672.1" r="49.2"/>
	<circle cx="1488.9" cy="614.2" r="29.8"/>
	<path fill="none" d="M1436.1,668.5c0.9-0.8,1.4-1.2,1.4-1.2S1436.9,667.7,1436.1,668.5z"/>
	<path fill="#AD0707" d="M1484.4,700.7c4.6-4.8,12-5.4,17.3-1.6c13.4-27.2,8.6-61-14.4-83.2c-28.4-27.5-73.8-26.8-101.3,1.7
		c-2.3,2.3-4.3,4.8-6.2,7.3c0.4,0.3,0.8,0.6,1.2,1c4.8,4.6,4.9,12.3,0.3,17.1c-3.3,3.4-8,4.4-12.2,3.2c-3.6,11.8-4.2,24.3-1.6,36.2
		c30.8,14.6,61.7-8.2,68.6-13.8c0.9-0.8,1.4-1.2,1.4-1.2s-0.5,0.5-1.4,1.2c-6.4,5.7-31.6,31.3-14,68.7c22,4.8,45.9-0.8,63.5-16.9
		c-0.3-0.2-0.6-0.5-0.9-0.8C1479.4,714.5,1479.3,706,1484.4,700.7z"/>
	<path d="M1501.7,699.1c-5.3-3.7-12.6-3.2-17.3,1.6c-5.1,5.3-5,13.8,0.3,18.9c0.3,0.3,0.6,0.5,0.9,0.8c1.1-1,2.3-2.1,3.4-3.3
		C1494.2,711.6,1498.5,705.5,1501.7,699.1z"/>
	<g>
		<g>
			<circle cx="1450.3" cy="610.3" r="7.1"/>
			<circle cx="1450.8" cy="660.4" r="12.1"/>
			<ellipse transform="matrix(0.6954 -0.7186 0.7186 0.6954 -11.8739 1274.9882)" cx="1498.1" cy="651.5" rx="7.3" ry="7.5"/>
			<circle cx="1432.4" cy="730.5" r="7.5"/>
			<circle cx="1407.5" cy="622.9" r="8.4"/>
		</g>
		<path d="M1381.3,642.9c4.6-4.8,4.5-12.4-0.3-17.1c-0.4-0.4-0.8-0.7-1.2-1c-4.8,6.6-8.4,13.7-10.7,21.2
			C1373.3,647.3,1378,646.3,1381.3,642.9z"/>
		<circle cx="1382.4" cy="676.7" r="7.5"/>
		<circle cx="1441.3" cy="695.9" r="6.7"/>
	</g>
	<path fill="none" stroke="#000000" stroke-width="2" stroke-miterlimit="10" d="M1477.1,532.7c0,0,43,16.4,13.7,52.9"/>
	<path fill="none" stroke="#000000" stroke-width="2" stroke-miterlimit="10" d="M1568.7,621.8c0,0-11.1-48.3-54.3-12.2"/>
	<circle fill="#AD0707" cx="1470.7" cy="533.7" r="10.8"/>
	<circle fill="#AD0707" cx="1565.2" cy="625.5" r="10.8"/>
</g>
<g id="mySpider">
	<ellipse cx="1453.4" cy="539" rx="71.7" ry="55.7"/>
	<g>
		<polygon points="1379.9,588.3 1418,568.5 1419.2,571 1382.8,589.9 1387,646.2 1384.3,646.4 		"/>
		<polygon points="1394.6,595.5 1426.4,578.9 1427.4,581 1397,596.8 1400.6,643.7 1398.3,643.9 		"/>
		<polygon points="1407.9,600.7 1433.1,587.6 1434,589.2 1409.8,601.8 1412.7,638.9 1410.8,639.1 		"/>
	</g>
	<g>
		<polygon points="1522.2,590.4 1484.1,570.6 1482.8,573 1519.3,592 1515.1,648.2 1517.8,648.4 		"/>
		<polygon points="1507.5,597.5 1475.7,581 1474.6,583 1505.1,598.9 1501.5,645.8 1503.8,645.9 		"/>
		<polygon points="1494.1,602.8 1469,589.7 1468.1,591.3 1492.2,603.8 1489.4,641 1491.2,641.1 		"/>
	</g>
	<ellipse fill="#4D4D4D" cx="1447.1" cy="537.8" rx="60.3" ry="49.6"/>
	<circle fill="#FFFFFF" cx="1422.6" cy="529.5" r="16.5"/>
	<circle fill="#FFFFFF" cx="1481.8" cy="529.5" r="16.5"/>
	<circle cx="1422.6" cy="529.5" r="5.5"/>
	<circle cx="1480.4" cy="529.5" r="5.5"/>
	
		<line id="line" fill="none" stroke="#000000" stroke-width="3" stroke-linecap="round" stroke-miterlimit="10" x1="1452.4" y1="1" x2="1452.4" y2="489.2"/>
</g>
<g id="heart">
	<path fill="#FFFFFF" d="M1145.8,280.8c64.4,0,116.1,48.4,116.1,108.2c0,23.2-8,44.5-21.2,61.7c0,10.6,2.7,37.2,27.2,41.1
		c0,0-47.1,2.7-65-9.3c-17.3,9.3-36.5,13.9-57.7,13.9c-64.4,0-116.1-48.4-116.1-108.2S1082.1,280.8,1145.8,280.8z"/>
	<path d="M1146.5,291.4c57.7,0,104.9,43.8,104.9,96.9c0,20.6-7.3,39.8-18.6,55.7c0,9.3-2.7,39.8,19.2,43.1c0,0-37.2-4-53.1-14.6
		c-15.3,8-33.2,12.6-51.8,12.6c-57.7,0-104.9-43.8-104.9-96.9S1088.7,291.4,1146.5,291.4z"/>
	<path fill="#E18885" d="M1077,420.9h1.5v8.7h12v-8.7h1.5v20h-1.5v-9.9h-12v9.9h-1.5V420.9z M1097.6,434c0,3.7,1.9,6,4.6,6
		c2.7,0,3.6-1.5,4.1-2.7h1.5c-0.6,1.9-2.1,4-5.6,4c-4.3,0-6-3.7-6-7.4c0-4.1,2-7.6,6.2-7.6c4.4,0,5.8,3.8,5.8,6.5c0,0.4,0,0.8,0,1.2
		H1097.6z M1106.6,432.7c0-2.8-1.6-5.1-4.4-5.1c-2.9,0-4.3,2.1-4.6,5.1H1106.6z M1111.7,440.9v-21.1h1.4v21.1H1111.7z M1117.8,440.9
		v-21.1h1.4v21.1H1117.8z M1135.5,433.8c0,4-2.2,7.5-6.5,7.5c-3.9,0-6.3-3.2-6.3-7.5c0-4.1,2.3-7.5,6.4-7.5
		C1133,426.3,1135.5,429.3,1135.5,433.8z M1124.3,433.8c0,3.4,1.8,6.1,4.9,6.1c3.1,0,4.8-2.5,4.8-6.1c0-3.4-1.7-6.1-4.9-6.1
		C1125.9,427.6,1124.3,430.4,1124.3,433.8z M1150.5,440.9l-5.5-20h1.6c1.3,4.8,4.4,15.9,4.8,18.2h0c0.4-1.9,3.7-12.9,5.1-18.2h1.7
		c1.3,4.9,4.5,16.6,4.8,18.2h0c0.6-2.8,4-13.4,5.3-18.2h1.6l-6.1,20h-1.8c-1.3-4.7-4.4-16.3-4.8-18h0c-0.5,2.6-3.6,13-5,18H1150.5z
		 M1183.3,433.8c0,4-2.2,7.5-6.5,7.5c-3.9,0-6.3-3.2-6.3-7.5c0-4.1,2.3-7.5,6.4-7.5C1180.8,426.3,1183.3,429.3,1183.3,433.8z
		 M1172.1,433.8c0,3.4,1.8,6.1,4.9,6.1c3.1,0,4.8-2.5,4.8-6.1c0-3.4-1.7-6.1-4.9-6.1C1173.6,427.6,1172.1,430.4,1172.1,433.8z
		 M1186.8,430.5c0-2.4,0-3.4,0-3.9h1.4c0,0.5,0.1,1.4,0.1,3.2c0.8-2.1,2.7-3.4,5-3.5v1.5c-3,0.2-5,2.3-5,5.7v7.4h-1.4V430.5z
		 M1196.1,440.9v-21.1h1.4v21.1H1196.1z M1213.3,419.9v17c0,1.4,0,2.7,0,4.1h-1.4c-0.1-0.3-0.1-1.7-0.1-2.4
		c-0.7,1.7-2.3,2.7-4.8,2.7c-3.7,0-5.9-3-5.9-7.3c0-4.4,2.4-7.7,6.3-7.7c2.9,0,4,1.2,4.4,2.1v-8.6H1213.3z M1202.6,433.9
		c0,3.9,2,6,4.5,6c3.8,0,4.8-2.6,4.8-6.5c0-3.7-0.9-5.8-4.5-5.8C1204.5,427.6,1202.6,429.9,1202.6,433.9z M1219.9,434.5l-0.1-10.1
		v-3.5h1.6v3.5l-0.1,10.1H1219.9z M1219.8,441v-3.4h1.5v3.4H1219.8z"/>
	<path fill="#E18885" d="M1095.4,356.7c-7.3,21.2,44.5,53.8,44.5,53.8l0,0c0,0,47.8-15.3,54.4-36.5s-0.7-61.1-47.8-13.3
		C1146.5,360,1112.6,305.6,1095.4,356.7z"/>
</g>
</svg>
