<?xml version="1.0" encoding="utf-8"?>
<!-- Generator: Adobe Illustrator 22.0.1, SVG Export Plug-In . SVG Version: 6.00 Build 0)  -->
<svg version="1.1" id="nyny_1_" xmlns="http://www.w3.org/2000/svg" xmlns:xlink="http://www.w3.org/1999/xlink" x="0px" y="0px"
	 viewBox="0 0 1920 1080" style="enable-background:new 0 0 1920 1080;" xml:space="preserve">
<g id="nyny">
	<g id="tail">
		<g>
			<g>
				<g>
					<g>
						<rect x="1476.1" y="204.8" style="fill:#FF2A0F;" width="46.2" height="15.6"/>
						<rect x="1476.1" y="220.3" style="fill:#FFA806;" width="46.2" height="15.6"/>
						<rect x="1476.1" y="235.9" style="fill:#FFF400;" width="46.2" height="15.6"/>
						<rect x="1476.1" y="251.5" style="fill:#32E907;" width="46.2" height="15.6"/>
						<rect x="1476.1" y="267.1" style="fill:#04A2FF;" width="46.2" height="15.6"/>
						<rect x="1476.1" y="282.6" style="fill:#7955FF;" width="46.2" height="15.6"/>
					</g>
					<g>
						<rect x="1430" y="200.3" style="fill:#FF2A0F;" width="46.2" height="15.6"/>
						<rect x="1430" y="215.9" style="fill:#FFA806;" width="46.2" height="15.6"/>
						<rect x="1430" y="231.5" style="fill:#FFF400;" width="46.2" height="15.6"/>
						<rect x="1430" y="247.1" style="fill:#32E907;" width="46.2" height="15.6"/>
						<rect x="1430" y="262.6" style="fill:#04A2FF;" width="46.2" height="15.6"/>
						<rect x="1430" y="278.3" style="fill:#7955FF;" width="46.2" height="15.6"/>
					</g>
					<g>
						<rect x="1384.1" y="204.8" style="fill:#FF2A0F;" width="46.2" height="15.6"/>
						<rect x="1384.1" y="220.3" style="fill:#FFA806;" width="46.2" height="15.6"/>
						<rect x="1384.1" y="235.9" style="fill:#FFF400;" width="46.2" height="15.6"/>
						<rect x="1384.1" y="251.5" style="fill:#32E907;" width="46.2" height="15.6"/>
						<rect x="1384.1" y="267.1" style="fill:#04A2FF;" width="46.2" height="15.6"/>
						<rect x="1384.1" y="282.6" style="fill:#7955FF;" width="46.2" height="15.6"/>
					</g>
					<g>
						<rect x="1338" y="200.3" style="fill:#FF2A0F;" width="46.2" height="15.6"/>
						<rect x="1338" y="215.9" style="fill:#FFA806;" width="46.2" height="15.6"/>
						<rect x="1338" y="231.5" style="fill:#FFF400;" width="46.2" height="15.6"/>
						<rect x="1338" y="247.1" style="fill:#32E907;" width="46.2" height="15.6"/>
						<rect x="1338" y="262.6" style="fill:#04A2FF;" width="46.2" height="15.6"/>
						<rect x="1338" y="278.3" style="fill:#7955FF;" width="46.2" height="15.6"/>
					</g>
				</g>
				<g>
					<g>
						<rect x="1292" y="204.8" style="fill:#FF2A0F;" width="46.2" height="15.6"/>
						<rect x="1292" y="220.3" style="fill:#FFA806;" width="46.2" height="15.6"/>
						<rect x="1292" y="235.9" style="fill:#FFF400;" width="46.2" height="15.6"/>
						<rect x="1292" y="251.5" style="fill:#32E907;" width="46.2" height="15.6"/>
						<rect x="1292" y="267.1" style="fill:#04A2FF;" width="46.2" height="15.6"/>
						<rect x="1292" y="282.6" style="fill:#7955FF;" width="46.2" height="15.6"/>
					</g>
					<g>
						<rect x="1246" y="200.3" style="fill:#FF2A0F;" width="46.2" height="15.6"/>
						<rect x="1246" y="215.9" style="fill:#FFA806;" width="46.2" height="15.6"/>
						<rect x="1246" y="231.5" style="fill:#FFF400;" width="46.2" height="15.6"/>
						<rect x="1246" y="247.1" style="fill:#32E907;" width="46.2" height="15.6"/>
						<rect x="1246" y="262.6" style="fill:#04A2FF;" width="46.2" height="15.6"/>
						<rect x="1246" y="278.3" style="fill:#7955FF;" width="46.2" height="15.6"/>
					</g>
					<g>
						<rect x="1200" y="204.8" style="fill:#FF2A0F;" width="46.2" height="15.6"/>
						<rect x="1200" y="220.3" style="fill:#FFA806;" width="46.2" height="15.6"/>
						<rect x="1200" y="235.9" style="fill:#FFF400;" width="46.2" height="15.6"/>
						<rect x="1200" y="251.5" style="fill:#32E907;" width="46.2" height="15.6"/>
						<rect x="1200" y="267.1" style="fill:#04A2FF;" width="46.2" height="15.6"/>
						<rect x="1200" y="282.6" style="fill:#7955FF;" width="46.2" height="15.6"/>
					</g>
					<g>
						<rect x="1154" y="200.3" style="fill:#FF2A0F;" width="46.2" height="15.6"/>
						<rect x="1154" y="215.9" style="fill:#FFA806;" width="46.2" height="15.6"/>
						<rect x="1154" y="231.5" style="fill:#FFF400;" width="46.2" height="15.6"/>
						<rect x="1154" y="247.1" style="fill:#32E907;" width="46.2" height="15.6"/>
						<rect x="1154" y="262.6" style="fill:#04A2FF;" width="46.2" height="15.6"/>
						<rect x="1154" y="278.3" style="fill:#7955FF;" width="46.2" height="15.6"/>
					</g>
				</g>
			</g>
			<g>
				<g>
					<g>
						<rect x="1107.6" y="204.8" style="fill:#FF2A0F;" width="46.2" height="15.6"/>
						<rect x="1107.6" y="220.3" style="fill:#FFA806;" width="46.2" height="15.6"/>
						<rect x="1107.6" y="235.9" style="fill:#FFF400;" width="46.2" height="15.6"/>
						<rect x="1107.6" y="251.5" style="fill:#32E907;" width="46.2" height="15.6"/>
						<rect x="1107.6" y="267.1" style="fill:#04A2FF;" width="46.2" height="15.6"/>
						<rect x="1107.6" y="282.6" style="fill:#7955FF;" width="46.2" height="15.6"/>
					</g>
					<g>
						<rect x="1061.6" y="200.3" style="fill:#FF2A0F;" width="46.2" height="15.6"/>
						<rect x="1061.6" y="215.9" style="fill:#FFA806;" width="46.2" height="15.6"/>
						<rect x="1061.6" y="231.5" style="fill:#FFF400;" width="46.2" height="15.6"/>
						<rect x="1061.6" y="247.1" style="fill:#32E907;" width="46.2" height="15.6"/>
						<rect x="1061.6" y="262.6" style="fill:#04A2FF;" width="46.2" height="15.6"/>
						<rect x="1061.6" y="278.3" style="fill:#7955FF;" width="46.2" height="15.6"/>
					</g>
					<g>
						<rect x="1015.6" y="204.8" style="fill:#FF2A0F;" width="46.2" height="15.6"/>
						<rect x="1015.6" y="220.3" style="fill:#FFA806;" width="46.2" height="15.6"/>
						<rect x="1015.6" y="235.9" style="fill:#FFF400;" width="46.2" height="15.6"/>
						<rect x="1015.6" y="251.5" style="fill:#32E907;" width="46.2" height="15.6"/>
						<rect x="1015.6" y="267.1" style="fill:#04A2FF;" width="46.2" height="15.6"/>
						<rect x="1015.6" y="282.6" style="fill:#7955FF;" width="46.2" height="15.6"/>
					</g>
					<g>
						<rect x="969.6" y="200.3" style="fill:#FF2A0F;" width="46.2" height="15.6"/>
						<rect x="969.6" y="215.9" style="fill:#FFA806;" width="46.2" height="15.6"/>
						<rect x="969.6" y="231.5" style="fill:#FFF400;" width="46.2" height="15.6"/>
						<rect x="969.6" y="247.1" style="fill:#32E907;" width="46.2" height="15.6"/>
						<rect x="969.6" y="262.6" style="fill:#04A2FF;" width="46.2" height="15.6"/>
						<rect x="969.6" y="278.3" style="fill:#7955FF;" width="46.2" height="15.6"/>
					</g>
				</g>
				<g>
					<g>
						<rect x="923.2" y="204.8" style="fill:#FF2A0F;" width="46.2" height="15.6"/>
						<rect x="923.2" y="220.3" style="fill:#FFA806;" width="46.2" height="15.6"/>
						<rect x="923.2" y="235.9" style="fill:#FFF400;" width="46.2" height="15.6"/>
						<rect x="923.2" y="251.5" style="fill:#32E907;" width="46.2" height="15.6"/>
						<rect x="923.2" y="267.1" style="fill:#04A2FF;" width="46.2" height="15.6"/>
						<rect x="923.2" y="282.6" style="fill:#7955FF;" width="46.2" height="15.6"/>
					</g>
					<g>
						<rect x="877.2" y="200.3" style="fill:#FF2A0F;" width="46.2" height="15.6"/>
						<rect x="877.2" y="215.9" style="fill:#FFA806;" width="46.2" height="15.6"/>
						<rect x="877.2" y="231.5" style="fill:#FFF400;" width="46.2" height="15.6"/>
						<rect x="877.2" y="247.1" style="fill:#32E907;" width="46.2" height="15.6"/>
						<rect x="877.2" y="262.6" style="fill:#04A2FF;" width="46.2" height="15.6"/>
						<rect x="877.2" y="278.3" style="fill:#7955FF;" width="46.2" height="15.6"/>
					</g>
					<g>
						<rect x="831.2" y="204.8" style="fill:#FF2A0F;" width="46.2" height="15.6"/>
						<rect x="831.2" y="220.3" style="fill:#FFA806;" width="46.2" height="15.6"/>
						<rect x="831.2" y="235.9" style="fill:#FFF400;" width="46.2" height="15.6"/>
						<rect x="831.2" y="251.5" style="fill:#32E907;" width="46.2" height="15.6"/>
						<rect x="831.2" y="267.1" style="fill:#04A2FF;" width="46.2" height="15.6"/>
						<rect x="831.2" y="282.6" style="fill:#7955FF;" width="46.2" height="15.6"/>
					</g>
					<g>
						<rect x="785.2" y="200.3" style="fill:#FF2A0F;" width="46.2" height="15.6"/>
						<rect x="785.2" y="215.9" style="fill:#FFA806;" width="46.2" height="15.6"/>
						<rect x="785.2" y="231.5" style="fill:#FFF400;" width="46.2" height="15.6"/>
						<rect x="785.2" y="247.1" style="fill:#32E907;" width="46.2" height="15.6"/>
						<rect x="785.2" y="262.6" style="fill:#04A2FF;" width="46.2" height="15.6"/>
						<rect x="785.2" y="278.3" style="fill:#7955FF;" width="46.2" height="15.6"/>
					</g>
				</g>
			</g>
		</g>
		<g>
			<g>
				<g>
					<g>
						<rect x="739.1" y="204.8" style="fill:#FF2A0F;" width="46.2" height="15.6"/>
						<rect x="739.1" y="220.3" style="fill:#FFA806;" width="46.2" height="15.6"/>
						<rect x="739.1" y="235.9" style="fill:#FFF400;" width="46.2" height="15.6"/>
						<rect x="739.1" y="251.5" style="fill:#32E907;" width="46.2" height="15.6"/>
						<rect x="739.1" y="267.1" style="fill:#04A2FF;" width="46.2" height="15.6"/>
						<rect x="739.1" y="282.6" style="fill:#7955FF;" width="46.2" height="15.6"/>
					</g>
					<g>
						<rect x="693" y="200.3" style="fill:#FF2A0F;" width="46.2" height="15.6"/>
						<rect x="693" y="215.9" style="fill:#FFA806;" width="46.2" height="15.6"/>
						<rect x="693" y="231.5" style="fill:#FFF400;" width="46.2" height="15.6"/>
						<rect x="693" y="247.1" style="fill:#32E907;" width="46.2" height="15.6"/>
						<rect x="693" y="262.6" style="fill:#04A2FF;" width="46.2" height="15.6"/>
						<rect x="693" y="278.3" style="fill:#7955FF;" width="46.2" height="15.6"/>
					</g>
					<g>
						<rect x="647.1" y="204.8" style="fill:#FF2A0F;" width="46.2" height="15.6"/>
						<rect x="647.1" y="220.3" style="fill:#FFA806;" width="46.2" height="15.6"/>
						<rect x="647.1" y="235.9" style="fill:#FFF400;" width="46.2" height="15.6"/>
						<rect x="647.1" y="251.5" style="fill:#32E907;" width="46.2" height="15.6"/>
						<rect x="647.1" y="267.1" style="fill:#04A2FF;" width="46.2" height="15.6"/>
						<rect x="647.1" y="282.6" style="fill:#7955FF;" width="46.2" height="15.6"/>
					</g>
					<g>
						<rect x="601" y="200.3" style="fill:#FF2A0F;" width="46.2" height="15.6"/>
						<rect x="601" y="215.9" style="fill:#FFA806;" width="46.2" height="15.6"/>
						<rect x="601" y="231.5" style="fill:#FFF400;" width="46.2" height="15.6"/>
						<rect x="601" y="247.1" style="fill:#32E907;" width="46.2" height="15.6"/>
						<rect x="601" y="262.6" style="fill:#04A2FF;" width="46.2" height="15.6"/>
						<rect x="601" y="278.3" style="fill:#7955FF;" width="46.2" height="15.6"/>
					</g>
				</g>
				<g>
					<g>
						<rect x="555.1" y="204.8" style="fill:#FF2A0F;" width="46.2" height="15.6"/>
						<rect x="555.1" y="220.3" style="fill:#FFA806;" width="46.2" height="15.6"/>
						<rect x="555.1" y="235.9" style="fill:#FFF400;" width="46.2" height="15.6"/>
						<rect x="555.1" y="251.5" style="fill:#32E907;" width="46.2" height="15.6"/>
						<rect x="555.1" y="267.1" style="fill:#04A2FF;" width="46.2" height="15.6"/>
						<rect x="555.1" y="282.6" style="fill:#7955FF;" width="46.2" height="15.6"/>
					</g>
					<g>
						<rect x="509" y="200.3" style="fill:#FF2A0F;" width="46.2" height="15.6"/>
						<rect x="509" y="215.9" style="fill:#FFA806;" width="46.2" height="15.6"/>
						<rect x="509" y="231.5" style="fill:#FFF400;" width="46.2" height="15.6"/>
						<rect x="509" y="247.1" style="fill:#32E907;" width="46.2" height="15.6"/>
						<rect x="509" y="262.6" style="fill:#04A2FF;" width="46.2" height="15.6"/>
						<rect x="509" y="278.3" style="fill:#7955FF;" width="46.2" height="15.6"/>
					</g>
					<g>
						<rect x="463" y="204.8" style="fill:#FF2A0F;" width="46.2" height="15.6"/>
						<rect x="463" y="220.3" style="fill:#FFA806;" width="46.2" height="15.6"/>
						<rect x="463" y="235.9" style="fill:#FFF400;" width="46.2" height="15.6"/>
						<rect x="463" y="251.5" style="fill:#32E907;" width="46.2" height="15.6"/>
						<rect x="463" y="267.1" style="fill:#04A2FF;" width="46.2" height="15.6"/>
						<rect x="463" y="282.6" style="fill:#7955FF;" width="46.2" height="15.6"/>
					</g>
					<g>
						<rect x="417" y="200.3" style="fill:#FF2A0F;" width="46.2" height="15.6"/>
						<rect x="417" y="215.9" style="fill:#FFA806;" width="46.2" height="15.6"/>
						<rect x="417" y="231.5" style="fill:#FFF400;" width="46.2" height="15.6"/>
						<rect x="417" y="247.1" style="fill:#32E907;" width="46.2" height="15.6"/>
						<rect x="417" y="262.6" style="fill:#04A2FF;" width="46.2" height="15.6"/>
						<rect x="417" y="278.3" style="fill:#7955FF;" width="46.2" height="15.6"/>
					</g>
				</g>
			</g>
			<g>
				<g>
					<g>
						<rect x="370.6" y="204.8" style="fill:#FF2A0F;" width="46.2" height="15.6"/>
						<rect x="370.6" y="220.3" style="fill:#FFA806;" width="46.2" height="15.6"/>
						<rect x="370.6" y="235.9" style="fill:#FFF400;" width="46.2" height="15.6"/>
						<rect x="370.6" y="251.5" style="fill:#32E907;" width="46.2" height="15.6"/>
						<rect x="370.6" y="267.1" style="fill:#04A2FF;" width="46.2" height="15.6"/>
						<rect x="370.6" y="282.6" style="fill:#7955FF;" width="46.2" height="15.6"/>
					</g>
					<g>
						<rect x="324.7" y="200.3" style="fill:#FF2A0F;" width="46.2" height="15.6"/>
						<rect x="324.7" y="215.9" style="fill:#FFA806;" width="46.2" height="15.6"/>
						<rect x="324.7" y="231.5" style="fill:#FFF400;" width="46.2" height="15.6"/>
						<rect x="324.7" y="247.1" style="fill:#32E907;" width="46.2" height="15.6"/>
						<rect x="324.7" y="262.6" style="fill:#04A2FF;" width="46.2" height="15.6"/>
						<rect x="324.7" y="278.3" style="fill:#7955FF;" width="46.2" height="15.6"/>
					</g>
					<g>
						<rect x="278.6" y="204.8" style="fill:#FF2A0F;" width="46.2" height="15.6"/>
						<rect x="278.6" y="220.3" style="fill:#FFA806;" width="46.2" height="15.6"/>
						<rect x="278.6" y="235.9" style="fill:#FFF400;" width="46.2" height="15.6"/>
						<rect x="278.6" y="251.5" style="fill:#32E907;" width="46.2" height="15.6"/>
						<rect x="278.6" y="267.1" style="fill:#04A2FF;" width="46.2" height="15.6"/>
						<rect x="278.6" y="282.6" style="fill:#7955FF;" width="46.2" height="15.6"/>
					</g>
					<g>
						<rect x="232.6" y="200.3" style="fill:#FF2A0F;" width="46.2" height="15.6"/>
						<rect x="232.6" y="215.9" style="fill:#FFA806;" width="46.2" height="15.6"/>
						<rect x="232.6" y="231.5" style="fill:#FFF400;" width="46.2" height="15.6"/>
						<rect x="232.6" y="247.1" style="fill:#32E907;" width="46.2" height="15.6"/>
						<rect x="232.6" y="262.6" style="fill:#04A2FF;" width="46.2" height="15.6"/>
						<rect x="232.6" y="278.3" style="fill:#7955FF;" width="46.2" height="15.6"/>
					</g>
				</g>
				<g>
					<g>
						<rect x="186.3" y="204.8" style="fill:#FF2A0F;" width="46.2" height="15.6"/>
						<rect x="186.3" y="220.3" style="fill:#FFA806;" width="46.2" height="15.6"/>
						<rect x="186.3" y="235.9" style="fill:#FFF400;" width="46.2" height="15.6"/>
						<rect x="186.3" y="251.5" style="fill:#32E907;" width="46.2" height="15.6"/>
						<rect x="186.3" y="267.1" style="fill:#04A2FF;" width="46.2" height="15.6"/>
						<rect x="186.3" y="282.6" style="fill:#7955FF;" width="46.2" height="15.6"/>
					</g>
					<g>
						<rect x="140.2" y="200.3" style="fill:#FF2A0F;" width="46.2" height="15.6"/>
						<rect x="140.2" y="215.9" style="fill:#FFA806;" width="46.2" height="15.6"/>
						<rect x="140.2" y="231.5" style="fill:#FFF400;" width="46.2" height="15.6"/>
						<rect x="140.2" y="247.1" style="fill:#32E907;" width="46.2" height="15.6"/>
						<rect x="140.2" y="262.6" style="fill:#04A2FF;" width="46.2" height="15.6"/>
						<rect x="140.2" y="278.3" style="fill:#7955FF;" width="46.2" height="15.6"/>
					</g>
					<g>
						<rect x="94.2" y="204.8" style="fill:#FF2A0F;" width="46.2" height="15.6"/>
						<rect x="94.2" y="220.3" style="fill:#FFA806;" width="46.2" height="15.6"/>
						<rect x="94.2" y="235.9" style="fill:#FFF400;" width="46.2" height="15.6"/>
						<rect x="94.2" y="251.5" style="fill:#32E907;" width="46.2" height="15.6"/>
						<rect x="94.2" y="267.1" style="fill:#04A2FF;" width="46.2" height="15.6"/>
						<rect x="94.2" y="282.6" style="fill:#7955FF;" width="46.2" height="15.6"/>
					</g>
					<g>
						<rect x="48.2" y="200.3" style="fill:#FF2A0F;" width="46.2" height="15.6"/>
						<rect x="48.2" y="215.9" style="fill:#FFA806;" width="46.2" height="15.6"/>
						<rect x="48.2" y="231.5" style="fill:#FFF400;" width="46.2" height="15.6"/>
						<rect x="48.2" y="247.1" style="fill:#32E907;" width="46.2" height="15.6"/>
						<rect x="48.2" y="262.6" style="fill:#04A2FF;" width="46.2" height="15.6"/>
						<rect x="48.2" y="278.3" style="fill:#7955FF;" width="46.2" height="15.6"/>
					</g>
				</g>
			</g>
		</g>
	</g>
	<g id="body">
		<g>
			<g>
				<g>
					<g>
						<polygon style="fill:#FFD69F;stroke:#000000;stroke-width:5.7844;stroke-miterlimit:10;" points="1615.6,289.1 1617.8,282.3 
							1624,280.6 1624,211.9 1618.2,210.9 1615.3,203.2 1522.8,203.2 1520.4,208.5 1514,211.9 1514,280.6 1521.3,282 1522.6,289.1 
													"/>
					</g>
				</g>
				<g>
					<g>
						<polygon style="fill:#FFB3FF;" points="1612,280.5 1619.7,273.7 1619.7,218.7 1611.8,211.7 1528.5,211.7 1520.6,218.7 
							1520.6,273.7 1528.3,280.5 						"/>
					</g>
				</g>
				<g>
					<rect x="1533" y="220.2" style="fill:#F45BAD;" width="6.8" height="6.8"/>
					<rect x="1560.8" y="249.9" style="fill:#F45BAD;" width="6.8" height="6.8"/>
					<rect x="1533.5" y="270.8" style="fill:#F45BAD;" width="6.8" height="4.9"/>
					<rect x="1527.2" y="255.7" style="fill:#F45BAD;" width="7.3" height="5.4"/>
					<rect x="1538.8" y="244.5" style="fill:#F45BAD;" width="6.4" height="5.8"/>
					<rect x="1550" y="265.6" style="fill:#F45BAD;" width="7.2" height="4.9"/>
					<rect x="1555.8" y="235.2" style="fill:#F45BAD;" width="5.8" height="6.2"/>
					<rect x="1561.3" y="215.6" style="fill:#F45BAD;" width="6.7" height="4.8"/>
					<rect x="1579.8" y="215.8" style="fill:#F45BAD;" width="4.8" height="6"/>
					<rect x="1602" y="226.4" style="fill:#F45BAD;" width="4.6" height="3.6"/>
					<rect x="1601.8" y="226.2" style="fill:#F45BAD;" width="4.6" height="3.6"/>
				</g>
			</g>
			<path style="fill:#A6A5AA;stroke:#000000;stroke-width:4.9581;stroke-miterlimit:10;" d="M1575.3,274.8c0-1.5,0-21.9,0-21.9
				l4.5-0.5l1.3-3.2v-17.5l2.7-0.1l0.4-3.4l8-0.3l0.7,5.6l4.6,0.3l1.1,3.4l3.4,0.8l1.1,3.4l3.3,1.3h19.7l3-1.4l0.9-2.2l4.9-2.1
				l1.1-4l5.9-0.7l0.6-3.9h6.5l-0.2,3.3l3.1,1.1v16.4l0.9,4.7l4.7,1.4v18.5l-4.1,1.3l-0.4,4.5l-3.9,0.3l-1.2,3.4l-4.3,1l-1.8,4.1
				h-54.3l-3-3.4l-0.5-4.1l-3.5-1l-1.5-3.8L1575.3,274.8z"/>
		</g>
		<g>
			<polyline style="fill:none;stroke:#000000;stroke-width:4.9581;stroke-miterlimit:10;" points="1595.3,263.8 1604.3,263.8 
				1604.3,256.7 			"/>
			<polyline style="fill:none;stroke:#000000;stroke-width:4.9581;stroke-miterlimit:10;" points="1634.8,264.2 1643.8,264.2 
				1643.8,257.2 			"/>
			<rect x="1595.9" y="255.8" style="fill:#FFFFFF;" width="5.8" height="5.4"/>
			<rect x="1635.2" y="256.4" style="fill:#FFFFFF;" width="6.4" height="5.6"/>
			<rect x="1623" y="260.3" width="5.6" height="6.1"/>
			<polygon points="1639.8,271 1634.7,271 1634.7,276.4 1622.5,276.4 1622.5,271 1617.9,271 1617.9,276.4 1605.9,276.4 1605.9,271 
				1601.6,271 1601.6,280.8 1602.3,280.8 1602.3,281.3 1639.1,281.3 1639.1,280.8 1639.8,280.8 			"/>
			<rect x="1583.3" y="266.9" style="fill:#E9AEB0;" width="12.2" height="9.5"/>
			<rect x="1644.6" y="266.9" style="fill:#E9AEB0;" width="12.2" height="9.5"/>
		</g>
		<g>
			<polygon style="fill:#A6A5AA;stroke:#000000;stroke-width:4.9581;stroke-miterlimit:10;" points="1593.3,297.1 1595.2,297.1 
				1595.2,301 1609.8,301 1609.8,290.3 1593.6,290.3 			"/>
			<polygon style="fill:#A6A5AA;stroke:#000000;stroke-width:4.9581;stroke-miterlimit:10;" points="1508.4,299.5 1521.3,299.5 
				1521.3,295.6 1524.9,295.6 1524.9,283.7 1508.1,283.7 			"/>
			<polygon style="fill:#A6A5AA;stroke:#000000;stroke-width:4.9581;stroke-miterlimit:10;" points="1536.5,291.3 1536.5,295.4 
				1539.7,295.4 1539.7,300 1553.3,300 1553.3,290.7 			"/>
			<path style="fill:#A6A5AA;stroke:#000000;stroke-width:3.3054;stroke-miterlimit:10;" d="M1617.2,289.3v4.6h6.8v3.6h12.9v-3.9
				h-4.9v-4.4C1632,289.3,1617.6,289.8,1617.2,289.3z"/>
			<polygon style="fill:#A6A5AA;stroke:#000000;stroke-width:3.3054;stroke-miterlimit:10;" points="1513.5,252.8 1501,253 
				1501,259.6 1490.3,259.6 1490.3,262.8 1484.7,262.8 1484.7,268.4 1480.1,268.4 1480.1,275.5 1484.7,275.5 1484.7,280.3 
				1491.3,280.3 1491.3,274 1498.4,274 1498.4,270.6 1506.1,270.6 1506.1,267.9 1515.2,267.9 1515.2,252.8 1514.2,252.8 			"/>
		</g>
	</g>
	<g id="h">
		<path style="fill:#FFFFFF;" d="M1788,68.1c-52.7,0-95,39.6-95,88.5c0,19,6.5,36.4,17.4,50.5c0,8.7-2.2,30.4-22.3,33.7
			c0,0,38.5,2.2,53.2-7.6c14.1,7.6,29.9,11.4,47.2,11.4c52.7,0,95-39.6,95-88.5S1840.2,68.1,1788,68.1z"/>
		<path d="M1787.5,76.8c-47.2,0-85.8,35.8-85.8,79.3c0,16.8,6,32.6,15.2,45.6c0,7.6,2.2,32.6-15.7,35.3c0,0,30.4-3.3,43.4-11.9
			c12.5,6.5,27.1,10.3,42.3,10.3c47.2,0,85.8-35.8,85.8-79.3S1834.7,76.8,1787.5,76.8z"/>
		<path style="fill:#E18885;" d="M1829.3,121.6c6,17.4-36.4,44-36.4,44l0,0c0,0-39.1-12.5-44.5-29.9s0.5-50,39.1-10.9
			C1787.5,124.3,1815.2,79.8,1829.3,121.6z"/>
		
			<text id="Thanks_Henry" transform="matrix(1 0 0 1 1721.4744 191.015)" style="fill:#FFFFFF; font-family:'MyriadPro-Regular'; font-size:23.0107px;">Thanks Henry!</text>
	</g>
</g>
</svg>
