<?xml version="1.0" encoding="utf-8"?>
<!-- Generator: Adobe Illustrator 22.0.1, SVG Export Plug-In . SVG Version: 6.00 Build 0)  -->
<svg version="1.1" id="witch" xmlns="http://www.w3.org/2000/svg" xmlns:xlink="http://www.w3.org/1999/xlink" x="0px" y="0px"
	 viewBox="0 0 100 100" style="enable-background:new 0 0 100 100;" xml:space="preserve">
<g id="hat">
	<path style="stroke:#000000;stroke-width:0.25;stroke-miterlimit:10;" d="M57.9,17.8c0,0-1.1-5.7-0.9-7.8c0.1-0.6-0.3-1.2-0.8-1.4
		c-1.6-0.8-4.7-2-8.6-1.7C41.9,7.3,37,6.5,46.4,3.4C49,2.6,57,3.1,58.5,2.9c2.5-0.2,7.7-0.4,9,5.5l4.7,7.9l-13.8,1.9L57.9,17.8z"/>
	<path style="stroke:#000000;stroke-width:0.25;stroke-miterlimit:10;" d="M45.3,35.6c0,0,5.3-15.8,14-18.4c0,0,6.7-4.9,15.4-0.7
		c0,0,9.1,2.3,5.1,13.7c0,0-2.1,7.9-10,7S45.3,35.6,45.3,35.6z"/>
	<path style="fill:#B3B3B3;stroke:#000000;stroke-width:0.25;stroke-miterlimit:10;" d="M57.6,13.8c0,0,8.1-2.4,11.5-1.5l1.5,1.9
		c0,0-7.3-2.3-13.2,1.4L57.6,13.8z"/>
	<polygon style="fill:#4D4D4D;stroke:#000000;stroke-width:0.25;stroke-miterlimit:10;" points="62.3,11.4 63,14.3 67.2,14.1 
		66.9,10.8 	"/>
	<polygon style="stroke:#000000;stroke-width:0.25;stroke-miterlimit:10;" points="63.6,12 63.9,13.4 66,13.3 65.8,11.7 	"/>
</g>
<g id="head">
	<path style="fill:#4D4D4D;stroke:#000000;stroke-width:0.25;stroke-miterlimit:10;" d="M71.9,27.3c0,4.1-2.9,6.8-6.3,7.4
		c-6.9,1.3-10.3-1.8-6.3-7.4c2.4-3.3,2.8-7.4,6.3-7.4C69,19.9,71.9,23.2,71.9,27.3z"/>
	<path style="fill:#1A1A1A;stroke:#000000;stroke-width:0.25;stroke-miterlimit:10;" d="M69.7,18.4c0,0-6.1-1.4-9.3,1.6
		c0,0-1.4,3.9-3.7,4.3c0,0,2.2-0.1,2.6-0.7c0,0-4.1,3.1-6.1,2.1c0,0,1,2.8,2.5,1.7c0,0-4.3,3.1-6-0.8c0,0,0.5,2.8,1.3,2.8
		c0,0-5.9,1.2-7.6-0.4c0,0,3.1,7.8,16.7,1.3c0,0,4-3.4,4.6-8l0.1-1.3c0,0,0,1.1,2.5,2.2c0,0-1.3-1.8-0.6-2.4c0,0,1.9,4.6,3.9,4.9
		c0,0-0.3,2.5,0.1,2.5l-1.3,1l-2.6,1.9c0,0,0.7,4.3-3.9,1.9c0,0-2.1,0.2-1.5,0.9c0.6,0.7,1,2.7,2.5,2.8c1.5,0.1-2.8,0.4-2.8-0.4
		c0,0,4.9,3.7,9.1,1.4c0,0,1.7,0.1,4.2-1.6c2.5-1.6,3.3-7.6,1-10.6C75.4,25.6,73.2,20.7,69.7,18.4z"/>
	<path style="fill:none;stroke:#000000;stroke-width:0.25;stroke-miterlimit:10;" d="M68.2,25.8c0,0-1,0.4-0.1,1.1
		c0.8,0.7,1.6,2.9,1.6,3.7s-0.2,1.6-0.2,1.6s-2.2-3.1-2.6-3.4c-0.4-0.2-2.1-1.4-1.3-1.9c0.8-0.5,0.7,0.4,0.7,0.4"/>
	<path style="fill:none;stroke:#000000;stroke-width:0.25;stroke-miterlimit:10;" d="M66.5,29.7c-0.8,0.2-3.1-2.2-3.1-2.2
		s0.4-0.6,1-0.3"/>
	<path style="fill:#4D4D4D;stroke:#000000;stroke-width:0.25;stroke-miterlimit:10;" d="M61,29.7c0,0,1.2,4.9,5.2,4
		c0,0,0.9-0.5,0.6-2.5"/>
</g>
<path style="fill:#27082D;stroke:#000000;stroke-width:0.25;stroke-miterlimit:10;" d="M69.1,58.8c0,0,3.1,5.4,1.7,6.1
	c-1.4,0.7-6.2,4.6-9.4,4.9c0,0-1.7,0.8-1.3,2.9c0,0-0.5,1.8-2.9,3.1c0,0-1.3,3.9-2.3,4.5c-1,0.6-6.1-1.4-6.1-1.4l3.2-21.5l13.5-2.1
	L69.1,58.8z"/>
<g id="broom">
	<path style="fill:#42210B;stroke:#47301E;stroke-width:0.25;stroke-miterlimit:10;" d="M54,61.4c0,0,16.7-3.2,22.6-7.4
		c0,0,14.1-5.9,18.4-8c0,0,2.7-1.5,2.7,3.4c0,0,1,0.8-1.7,1.8c-2.8,1-9.7,2.4-9.7,2.4S48.2,69,36.6,65c0,0-1.1-2.1-0.3-2.2
		C37.1,62.6,43.4,64.1,54,61.4z"/>
	<ellipse style="fill:#603813;stroke:#47301E;stroke-width:0.25;stroke-miterlimit:10;" cx="37" cy="64" rx="2.7" ry="3.7"/>
	<ellipse style="fill:#754C24;stroke:#47301E;stroke-width:0.25;stroke-miterlimit:10;" cx="34.3" cy="64.5" rx="2.7" ry="3.7"/>
	<path style="fill:#5C2B00;stroke:#47301E;stroke-width:0.25;stroke-miterlimit:10;" d="M33,65.2c0-1.7-1.1-3-2.5-3.3l0-0.4
		C30.1,61.5,15,50.1,12.9,51c-0.7,0.3,0.4,1.4,2.3,2.7c-1.6,0.1-4.9,0.1-4.3,0.7c0.5,0.5,4.3,3,8.2,4.5c-3.1-0.5-6.8-0.7-8.9,0.7
		c0,0,2.8,1.9,4.6,1.8L10.1,62l3.7,1.2L9,64.6H14l-3.1,0.8c0,0,1.6,0.2,3.8,0.4l-0.5,0.4L4,71.6l7.3-1.3l-4.9,3.9l4.4-1.2L9,75.9
		l3.7-2.2l-2.8,4.7l4.4-2.9L14.2,80c0,0,6.4-5.6,7.6-7.5c1.2-1.9,6.6-2.6,6.6-2.6l2.1-1.3l0-0.1C31.9,68.2,33,66.8,33,65.2z
		 M19.4,69.4L19.4,69.4l3.7-0.7L19.4,69.4z"/>
	<path style="fill:none;stroke:#47301E;stroke-width:0.25;stroke-miterlimit:10;" d="M13.4,70.7c0,0,4.4-4.3,7.6-3.9"/>
	<path style="fill:none;stroke:#47301E;stroke-width:0.25;stroke-miterlimit:10;" d="M16.6,62.9c0,0,11.1,3.1,13.2,3.1"/>
	<path style="fill:none;stroke:#47301E;stroke-width:0.25;stroke-miterlimit:10;" d="M18.1,60c0,0,13.1,4.7,13.5,5.2"/>
	<path style="fill:none;stroke:#47301E;stroke-width:0.25;stroke-miterlimit:10;" d="M18.7,59.1c0,0,9,0.3,12.3,5.9"/>
	<path style="fill:none;stroke:#47301E;stroke-width:0.25;stroke-miterlimit:10;" d="M16.2,73.2c0,0,9.2-5.9,13-5.3"/>
	<line style="fill:none;stroke:#47301E;stroke-width:0.25;stroke-miterlimit:10;" x1="15.4" y1="54.1" x2="23" y2="58.7"/>
</g>
<g id="body">
	<g>
		<path style="fill:#27082D;stroke:#000000;stroke-width:0.25;stroke-miterlimit:10;" d="M69.1,39l-7.8-5c0,0-3.2-0.1-2.9-1.5
			l-0.4-1.8l-8,1.3l1.6,12l2.6,0.7L69.1,39z"/>
		<path style="fill:#27082D;stroke:#000000;stroke-width:0.25;stroke-miterlimit:10;" d="M69.4,38.7c0,0,3.6,6.8,4.7,7.1
			c1.1,0.3-0.2,1.3-0.2,1.3l2.1,0.7c0,0,0.3,1.3,0.5,1.9c0.2,0.6-1.2-1-2.3,0.3c-1.1,1.3-3.6,4.3-4.3,5.3s-2.9,2.5-3.4,2.2
			c-0.5-0.4-5,3.2-6.1,3.2c-1.1,0-6.5,0.4-6.5,0.4s2.9,4.9,3.7,7.5c0.8,2.6-0.7,5.5-3.7,11.4s-1.6,11.7-2,12.6c-0.4,1-4,4.5-4,4.5
			s-2.3-6.4-5.5-6.7c-3.2-0.3-8.5,1.9-10.2-1.4c-1.6-3.3-5.4-2.9-7-3.5c-1.6-0.6-0.4-16.7,7.1-16.1c0,0,2.2-1,3.1,0.4L32,71.6
			c0,0,11.7-5.8,12-6.6c0.3-0.7-8.4-1-7-7.8c1.4-6.8,5.8-9.6,5.8-9.6"/>
		<path style="fill:#27082D;stroke:#000000;stroke-width:0.25;stroke-miterlimit:10;" d="M50.8,32.7c0,0-0.3,5.5-15.3,2.2
			c0,0-5.8,0.7-0.3,4.2c0,0,6.5,9,11.6,9.8c5.1,0.7,4.2,2.2,6,1.8c1.8-0.4,4.8-1.3,6.2-0.7c0,0,1.9-0.1,1-1.6c0,0-6.6-5.3-7.8-5.9"
			/>
		<path style="fill:none;stroke:#000000;stroke-width:0.25;stroke-miterlimit:10;" d="M64.5,39.6c0,0,0.1,4.8-2.2,5.2
			c-2.4,0.4-4,2.1-4,2.1"/>
	</g>
	<path style="fill:none;stroke:#000000;stroke-width:0.25;stroke-miterlimit:10;" d="M43.6,51.7c0,0,2.6-1.2,8.8,5.5"/>
	<path style="fill:none;stroke:#000000;stroke-width:0.25;stroke-miterlimit:10;" d="M59.9,50.5c0,0,7.5-0.4,8.7-1.9"/>
	<path style="fill:none;stroke:#000000;stroke-width:0.25;stroke-miterlimit:10;" d="M60.7,52.6c0,0,8.7-1.9,10.2-3.6"/>
	<path style="fill:none;stroke:#000000;stroke-width:0.25;stroke-miterlimit:10;" d="M54.9,59.9c0,0,3-1.1,3.1-1.9"/>
	<path style="fill:none;stroke:#000000;stroke-width:0.25;stroke-miterlimit:10;" d="M57.3,64.4c0.7,0.1,4.3,1.5,6.4,1"/>
	<path style="fill:none;stroke:#000000;stroke-width:0.25;stroke-miterlimit:10;" d="M56.4,65.8c1,0.4,2.5,3.4,4.8,2.4"/>
	<path style="fill:#999999;stroke:#000000;stroke-width:0.25;stroke-miterlimit:10;" d="M69.9,55.4c0,0,4-0.9,5.3-3.1l-2-1.3
		L69.9,55.4z"/>
	<path style="fill:none;stroke:#000000;stroke-width:0.25;stroke-miterlimit:10;" d="M62,38.7c-0.3-0.1,0.9,1.6-1.6,3.4
		c-2.5,1.9-2.3,3.2-2.3,3.2"/>
	<path style="fill:none;stroke:#000000;stroke-width:0.25;stroke-miterlimit:10;" d="M41.3,37.5c0,0,1.9,6.6,9.9,8.4"/>
	<path style="fill:none;stroke:#000000;stroke-width:0.25;stroke-miterlimit:10;" d="M55.9,34.6c0,0,0.1,9.5,1.2,9.8
		s0.9,2.2,0.9,2.2"/>
	<path style="fill:none;stroke:#000000;stroke-width:0.25;stroke-miterlimit:10;" d="M53.6,41.3c0.2,0,3.2,2.8,3.2,2.8"/>
	<line style="fill:none;stroke:#000000;stroke-width:0.25;stroke-miterlimit:10;" x1="58.5" y1="36" x2="58.1" y2="44.6"/>
</g>
<g id="hands">
	<path style="fill:#4D4D4D;stroke:#444444;stroke-width:0.25;stroke-miterlimit:10;" d="M73.2,51l3.5,2.4l2.1,2.6c0,0,1,0.8,1.9,0.6
		c0.8-0.2,1.7,0.4,2.2-0.1c0.4-0.6,2.6-1.1,2.7-2s0.7-3.3-4.7-4.8c0,0-2.6,0.6-2.4,1.5c0.2,0.9-2.3-1.5-2.3-1.5s-0.7-0.6-1-0.3
		C74.7,49.6,73.2,51,73.2,51z"/>
	<path style="fill:#4D4D4D;stroke:#444444;stroke-width:0.25;stroke-miterlimit:10;" d="M54.6,50.5c0,0,5.9,7.1,6.1,8.4
		c0.2,1.3-0.7,1.6,1.3,2.5s1.9,1.1,3,0.4c1.1-0.7,2.8-0.7,2.5-1.5c-0.2-0.7-1.8-3.1-2.8-3.2c-1-0.1-2,0.7-2.7-0.1
		c-0.7-0.8-1.5-2.3-1.5-2.9s-0.4-2.8-1.3-3.3c-0.8-0.4-0.9-1.1-1.3-1C57.6,49.7,54.7,50.2,54.6,50.5z"/>
</g>
</svg>
